<svg width="9" height="6" viewBox="0 0 9 6" fill="none" xmlns="http://www.w3.org/2000/svg"><path d="M8.83968 0.829457L8.13562 0.139535C8.04069 0.0465116 7.92203 0 7.78755 0C7.65306 0 7.5344 0.0465116 7.43947 0.139535L4.05366 3.45736L2.5427 1.96899C2.44777 1.87597 2.32911 1.82946 2.19463 1.82946C2.06014 1.82946 1.94148 1.87597 1.84655 1.96899L1.14249 2.65891C1.03965 2.75194 0.992188 2.86822 0.992188 3C0.992188 3.13178 1.03965 3.24806 1.13458 3.34109L3.00153 5.17054L3.70558 5.86046C3.80051 5.95349 3.91918 6 4.05366 6C4.18814 6 4.3068 5.95349 4.40173 5.86046L5.10579 5.17054L8.83968 1.51163C8.93461 1.4186 8.98207 1.30233 8.98207 1.17054C8.98207 1.03876 8.93461 0.922481 8.83968 0.829457Z" fill="#fff"/></svg>