<svg width="22" height="18" viewBox="0 0 22 18" fill="none" xmlns="http://www.w3.org/2000/svg"><path d="M21.4152 2.92249L19.5119 0.990704C19.2552 0.730239 18.9345 0.600006 18.5709 0.600006C18.2073 0.600006 17.8865 0.730239 17.6299 0.990704L8.47663 10.2806L4.39188 6.11318C4.13524 5.85272 3.81445 5.72249 3.45089 5.72249C3.08732 5.72249 2.76653 5.85272 2.5099 6.11318L0.606532 8.04497C0.328512 8.30543 0.200195 8.63101 0.200195 9.00001C0.200195 9.369 0.328512 9.69458 0.585146 9.95504L5.63227 15.0775L7.53564 17.0093C7.79227 17.2698 8.11307 17.4 8.47663 17.4C8.8402 17.4 9.16099 17.2698 9.41762 17.0093L11.321 15.0775L21.4152 4.83256C21.6719 4.5721 21.8002 4.24652 21.8002 3.87753C21.8002 3.50853 21.6719 3.18295 21.4152 2.92249Z" fill="#19A861"/></svg>