<svg width="14" height="10" viewBox="0 0 14 10" fill="none" xmlns="http://www.w3.org/2000/svg"><path d="M13.4807 1.38243L12.2917 0.232558C12.1314 0.0775194 11.931 0 11.7038 0C11.4767 0 11.2763 0.0775194 11.116 0.232558L5.39789 5.76227L2.84611 3.28165C2.68579 3.12662 2.48539 3.0491 2.25827 3.0491C2.03115 3.0491 1.83075 3.12662 1.67043 3.28165L0.48138 4.43152C0.307699 4.58656 0.227539 4.78036 0.227539 5C0.227539 5.21964 0.307699 5.41344 0.46802 5.56848L3.621 8.61757L4.81004 9.76744C4.97036 9.92248 5.17077 10 5.39789 10C5.62501 10 5.82541 9.92248 5.98573 9.76744L7.17478 8.61757L13.4807 2.51938C13.6411 2.36434 13.7212 2.17054 13.7212 1.9509C13.7212 1.73127 13.6411 1.53747 13.4807 1.38243Z" fill="#fff"/></svg>