<svg width="26" height="27" viewBox="0 0 26 27" fill="none" xmlns="http://www.w3.org/2000/svg"><path d="M12.6072 25.9999C19.0179 25.9999 24.2144 22.8374 24.2144 18.9374V14.3124C24.2144 18.2124 19.0179 20.9999 12.6072 20.9999C6.19646 20.9999 1 18.2124 1 14.3124V18.9374C1 21.0749 2.55358 22.9874 5.01788 24.2749" stroke="#9AA4B0" stroke-width="2" stroke-linecap="round" stroke-linejoin="round"/><path d="M24.2144 8.06254C24.2144 9.20004 23.768 10.25 22.9823 11.1501C21.0715 13.3501 17.1429 14.7501 12.6072 14.7501C8.07146 14.7501 4.14287 13.3501 2.23215 11.1501C1.44643 10.25 1 9.20004 1 8.06254C1 6.11253 2.30356 4.35002 4.39286 3.07501C6.50001 1.7875 9.3929 1 12.6072 1C15.8215 1 18.7144 1.7875 20.8215 3.06251C22.9108 4.35002 24.2144 6.11253 24.2144 8.06254Z" stroke="#9AA4B0" stroke-width="2" stroke-linecap="round" stroke-linejoin="round"/><path d="M24.2144 8.06254V14.3126C24.2144 18.2126 19.0179 21.0001 12.6072 21.0001C6.19646 21.0001 1 18.2126 1 14.3126V8.06254C1 4.16252 6.19646 1 12.6072 1C15.8215 1 18.7144 1.7875 20.8215 3.06251C22.9108 4.35002 24.2144 6.11253 24.2144 8.06254Z" stroke="#9AA4B0" stroke-width="2" stroke-linecap="round" stroke-linejoin="round"/></svg>