<svg width="23" height="25" viewBox="0 0 23 25" fill="none" xmlns="http://www.w3.org/2000/svg"><path d="M13.6628 25H9.01163C2.69768 25 0 22.3023 0 15.9884V9.01163C0 2.69767 2.69768 0 9.01163 0H13.6628C19.9767 0 22.6744 2.69767 22.6744 9.01163V15.9884C22.6744 22.3023 19.9767 25 13.6628 25ZM9.01163 1.74419C3.65116 1.74419 1.74419 3.65116 1.74419 9.01163V15.9884C1.74419 21.3488 3.65116 23.2558 9.01163 23.2558H13.6628C19.0233 23.2558 20.9302 21.3488 20.9302 15.9884V9.01163C20.9302 3.65116 19.0233 1.74419 13.6628 1.74419H9.01163Z" fill="#9AA4B0"/><path d="M14.8264 11.1398H7.84968C6.40782 11.1398 5.2334 9.96532 5.2334 8.52345V7.36066C5.2334 5.9188 6.40782 4.74438 7.84968 4.74438H14.8264C16.2683 4.74438 17.4427 5.9188 17.4427 7.36066V8.52345C17.4427 9.96532 16.2683 11.1398 14.8264 11.1398ZM7.84968 6.48857C7.37293 6.48857 6.97758 6.88392 6.97758 7.36066V8.52345C6.97758 9.0002 7.37293 9.39555 7.84968 9.39555H14.8264C15.3032 9.39555 15.6985 9.0002 15.6985 8.52345V7.36066C15.6985 6.88392 15.3032 6.48857 14.8264 6.48857H7.84968Z" fill="#9AA4B0"/><path d="M6.86112 15.8953C6.70996 15.8953 6.5588 15.8604 6.41926 15.8023C6.27973 15.7442 6.15182 15.6628 6.04717 15.5581C5.82624 15.3372 5.70996 15.0465 5.70996 14.7325C5.70996 14.5814 5.73322 14.4302 5.79136 14.2907C5.8495 14.1395 5.93089 14.0232 6.04717 13.907C6.09368 13.8604 6.15182 13.8023 6.22159 13.7674C6.27973 13.7209 6.3495 13.686 6.41926 13.6628C6.48903 13.6279 6.57043 13.6046 6.64019 13.593C7.01229 13.5116 7.41926 13.6395 7.6867 13.907C7.79136 14.0116 7.88438 14.1395 7.94252 14.2907C8.00066 14.4302 8.03554 14.5814 8.03554 14.7325C8.03554 15.0465 7.90764 15.3372 7.6867 15.5581C7.46577 15.7791 7.17508 15.8953 6.86112 15.8953Z" fill="#9AA4B0"/><path d="M11.5261 15.8954C11.2121 15.8954 10.9214 15.7791 10.7005 15.5582C10.4796 15.3373 10.3633 15.0466 10.3633 14.7326C10.3633 14.5815 10.3865 14.4303 10.4447 14.2908C10.5028 14.1396 10.5842 14.0233 10.7005 13.907C10.747 13.8605 10.8051 13.8024 10.8749 13.7675C10.933 13.721 11.0028 13.6861 11.0726 13.6628C11.1424 13.628 11.2237 13.6047 11.2935 13.5931C11.5144 13.5466 11.747 13.5698 11.9679 13.6628C12.1075 13.721 12.2354 13.8024 12.34 13.907C12.4447 14.0233 12.5377 14.1396 12.5958 14.2908C12.654 14.4303 12.6889 14.5815 12.6889 14.7326C12.6889 15.0466 12.561 15.3373 12.34 15.5582C12.1191 15.7791 11.8284 15.8954 11.5261 15.8954Z" fill="#9AA4B0"/><path d="M16.1629 15.8954C16.0117 15.8954 15.8606 15.8605 15.721 15.8024C15.5815 15.7442 15.4536 15.6628 15.3489 15.5582C15.2326 15.4419 15.1513 15.314 15.0931 15.1745C15.035 15.0349 15.0117 14.8838 15.0117 14.7326C15.0117 14.5814 15.035 14.4303 15.0931 14.2907C15.1513 14.1396 15.2326 14.0233 15.3489 13.907C15.7792 13.4768 16.5582 13.4768 16.9885 13.907C17.2094 14.128 17.3373 14.4303 17.3373 14.7326C17.3373 15.0466 17.2094 15.3373 16.9885 15.5582C16.7792 15.7675 16.4885 15.8954 16.1629 15.8954Z" fill="#9AA4B0"/><path d="M6.87559 20.5466C6.56164 20.5466 6.27094 20.4303 6.05001 20.2093C5.82908 19.9884 5.70117 19.6977 5.70117 19.3838C5.70117 19.0814 5.82908 18.7791 6.05001 18.5582C6.09652 18.5117 6.16629 18.4535 6.22443 18.4186C6.28257 18.3721 6.35233 18.3372 6.4221 18.314C6.49187 18.2791 6.57326 18.2559 6.64303 18.2442C7.02675 18.1745 7.4221 18.2907 7.68954 18.5582C7.74768 18.6163 7.79419 18.6745 7.84071 18.7326C7.87559 18.8024 7.91047 18.8721 7.94536 18.9419C7.96861 19.0117 7.99187 19.0814 8.01513 19.1512C8.02675 19.2326 8.03838 19.3024 8.03838 19.3838C8.03838 19.6977 7.91047 19.9884 7.68954 20.2093C7.46861 20.4303 7.17792 20.5466 6.87559 20.5466Z" fill="#9AA4B0"/><path d="M11.5231 20.5466C11.2091 20.5466 10.9184 20.4303 10.6975 20.2093C10.4765 19.9884 10.3486 19.6977 10.3486 19.3838C10.3486 19.0814 10.4765 18.7791 10.6975 18.5582C10.9649 18.2907 11.3719 18.1745 11.744 18.2442C11.8137 18.2559 11.8951 18.2791 11.9649 18.314C12.0347 18.3372 12.1044 18.3721 12.1626 18.4186C12.2207 18.4535 12.2789 18.5117 12.337 18.5582C12.5579 18.7791 12.6742 19.0814 12.6742 19.3838C12.6742 19.6977 12.5579 19.9884 12.337 20.2093C12.1161 20.4303 11.8254 20.5466 11.5231 20.5466Z" fill="#9AA4B0"/><path d="M16.1629 20.5465C15.8606 20.5465 15.5699 20.4303 15.3489 20.2093C15.128 19.9884 15.0117 19.6977 15.0117 19.3837C15.0117 19.0814 15.128 18.7791 15.3489 18.5582C15.4536 18.4535 15.5815 18.3721 15.721 18.314C16.1513 18.1396 16.6745 18.2326 16.9885 18.5582C17.2094 18.7791 17.3257 19.0814 17.3257 19.3837C17.3257 19.6977 17.2094 19.9884 16.9885 20.2093C16.8838 20.314 16.7559 20.3954 16.6164 20.4535C16.4768 20.5117 16.3257 20.5465 16.1629 20.5465Z" fill="#9AA4B0"/></svg>