<svg width="50" height="50" viewBox="0 0 50 50" fill="none" xmlns="http://www.w3.org/2000/svg"><rect width="50" height="50" rx="25" fill="#19A861"/><g clip-path="url(#clip0_203_3578)"><path d="M25.0029 14C18.9302 14 14.0029 18.9273 14.0029 25C14.0029 27.4316 14.79 29.6713 16.121 31.4951L14.7196 35.6417L19.0902 34.2786C20.7987 35.3665 22.8272 36 25.0029 36C31.0756 36 36.0029 31.0727 36.0029 25C36.0029 18.9273 31.0756 14 25.0029 14ZM30.039 30.8999C28.0425 31.6998 25.662 30.9255 23.0576 28.9482C20.4532 26.9709 18.7382 24.1873 18.6231 22.1204C18.5079 20.0535 20.1908 19.0105 21.1059 19.0169C22.021 19.0233 23.0256 21.9476 23.0384 22.3956C23.0512 22.8499 21.9186 23.6562 21.8738 24.0401C21.829 24.4241 23.416 26.3182 24.0879 26.8301C24.7534 27.3357 26.1292 28.3083 26.8395 28.2187C27.5434 28.1227 28.0105 26.7086 28.4584 26.619C28.9064 26.5294 31.3508 27.7452 31.594 28.0588C31.8371 28.3787 31.8115 30.196 30.039 30.8999Z" fill="#fff"/></g><defs><clipPath id="clip0_203_3578"><path fill="#fff" transform="translate(14.003 14)" d="M0 0H22V22H0z"/></clipPath></defs></svg>